<?xml version="1.0" standalone="no"?>
<!DOCTYPE svg PUBLIC "-//W3C//DTD SVG 20010904//EN"
 "http://www.w3.org/TR/2001/REC-SVG-20010904/DTD/svg10.dtd">
<svg version="1.0" xmlns="http://www.w3.org/2000/svg"
 width="512.000000pt" height="512.000000pt" viewBox="0 0 512.000000 512.000000"
 preserveAspectRatio="xMidYMid meet">
<metadata>
Created by potrace 1.14, written by Peter Selinger 2001-2017
</metadata>
<g transform="translate(0.000000,512.000000) scale(0.100000,-0.100000)"
fill="#000000" stroke="none">
<path d="M2369 5116 c-2 -2 -34 -6 -70 -10 -534 -50 -1071 -293 -1474 -666
-305 -283 -544 -645 -680 -1029 -102 -291 -140 -521 -139 -861 0 -205 4 -264
28 -410 48 -289 166 -619 305 -850 11 -19 29 -51 40 -70 30 -55 147 -217 221
-305 365 -436 882 -746 1435 -859 208 -43 287 -50 520 -51 164 0 239 4 365 20
299 37 673 170 955 340 610 367 1041 970 1189 1665 14 63 28 140 31 170 4 30
9 69 12 85 8 59 11 451 3 520 -16 136 -22 175 -35 235 -3 14 -10 46 -15 71
-26 130 -96 342 -165 498 -37 83 -49 107 -127 245 -129 229 -388 531 -588 686
-24 19 -53 43 -65 53 -21 19 -215 149 -275 184 -81 48 -282 143 -371 177 -172
64 -403 123 -554 141 -27 4 -61 9 -75 12 -28 5 -466 14 -471 9z m481 -315
c429 -63 791 -218 1120 -479 98 -78 259 -234 320 -311 19 -24 40 -49 45 -55
14 -15 103 -140 136 -191 76 -118 195 -369 235 -498 49 -160 87 -333 101 -469
15 -144 8 -457 -12 -573 -6 -34 -24 -128 -31 -165 -15 -74 -81 -280 -113 -355
-107 -243 -240 -461 -376 -614 -60 -69 -201 -209 -260 -258 -83 -70 -228 -173
-300 -213 -33 -18 -68 -40 -79 -49 -10 -9 -20 -15 -22 -14 -2 1 -41 -15 -86
-37 -212 -99 -435 -166 -678 -201 -94 -14 -419 -18 -520 -7 -500 57 -926 250
-1302 590 -66 60 -177 181 -272 298 -87 107 -230 364 -296 530 -40 101 -106
322 -115 385 -2 17 -9 55 -15 85 -31 160 -34 527 -5 690 3 14 7 40 10 58 35
214 115 449 224 657 49 95 124 219 141 235 3 3 13 16 22 30 22 35 101 133 173
215 51 58 121 123 260 244 67 57 277 191 390 247 149 75 278 124 429 164 122
33 125 33 196 45 25 4 54 9 65 11 11 2 54 7 95 10 41 4 77 8 79 10 8 7 372 -5
441 -15z"/>
<path d="M1324 3156 c-79 -22 -118 -70 -117 -147 1 -37 7 -58 27 -84 38 -49
56 -56 175 -66 58 -5 117 -11 131 -14 14 -3 36 -7 50 -10 14 -2 58 -16 98 -29
224 -76 412 -222 549 -422 12 -19 23 -38 23 -41 0 -4 6 -14 14 -22 20 -24 82
-178 100 -246 22 -86 25 -110 32 -205 7 -107 18 -141 52 -171 40 -35 72 -46
120 -39 52 8 91 35 115 81 15 29 17 50 13 139 -2 58 -10 130 -16 160 -6 30
-13 67 -15 81 -11 59 -71 219 -114 305 -151 296 -414 531 -728 650 -105 39
-254 72 -361 80 -53 3 -99 8 -102 9 -3 1 -23 -3 -46 -9z"/>
<path d="M3738 3165 c-2 -1 -41 -5 -87 -9 -304 -24 -590 -153 -817 -368 l-86
-83 27 -50 c15 -28 32 -55 37 -62 5 -6 26 -50 47 -97 l38 -86 39 47 c93 114
203 207 335 280 123 69 325 122 462 123 107 0 178 58 179 144 2 85 -43 139
-126 155 -25 4 -47 7 -48 6z"/>
</g>
</svg>
